<svg id="Camada_1" data-name="Camada 1" xmlns="http://www.w3.org/2000/svg" viewBox="0 0 489.94 257.23"><defs><style>.cls-1{fill:#5dd9c1;}</style></defs><g id="Camada_1-2" data-name="Camada 1"><path class="cls-1" d="M39.11,59.71l21.54,54.7,21.63-54.7H93v62.52H85.85V68.82L64.5,122.23H56.71L35.45,68.82v53.41H28.3V59.71Z"/><path class="cls-1" d="M105,91.16c0-17.93,13.2-32.09,30.88-32.09s30.7,14.16,30.7,32.09-13.2,32.18-30.7,32.18S105,109.18,105,91.16Zm53.88,0c0-14.25-9.81-25.47-23-25.47s-23.19,11.22-23.19,25.47,9.71,25.56,23.19,25.56,23-11.4,23-25.56Z"/><path class="cls-1" d="M185.73,59.71V98.14c0,11.22,4.67,18.3,17.14,18.3s16.95-7.08,16.95-18.3V59.71h7.33V98.05c0,13.79-5.5,24.82-24.29,24.82s-24.29-11-24.29-24.82V59.71h7.16Z"/><path class="cls-1" d="M237.69,66.06V59.72h55.9v6.34H269.3v56.17H262V66.06H237.69Z"/><path class="cls-1" d="M301.57,118.37v-7.45a53.21,53.21,0,0,0,21.63,5.24c9.81,0,15.76-3.4,15.76-9.38,0-14.62-36.84-10.11-36.84-31.35,0-9.65,7.61-16.36,22.91-16.36,9.81,0,16.31,3,19.25,5.24V71a36.07,36.07,0,0,0-18.7-5.33c-10.81,0-15.95,4.5-15.95,10,0,14.53,37,9.93,37,30.71,0,6.9-3.94,16.46-23.28,16.46a58.14,58.14,0,0,1-21.81-4.5Z"/><path class="cls-1" d="M60.91,143.93H51.84L28.29,206.45h7.23l5.59-15,2.29-6.16,13-34.84,13,34.84,2.29,6.16,5.59,15h7.15L60.9,143.93Z"/><path class="cls-1" d="M88.86,175.19c0-17.56,11.36-31.9,30.06-31.9,13,0,21.9,6.62,26.58,15.72l-6.23,4c-4.12-7.72-11.27-13.05-20.35-13.05-13.75,0-22.36,11.22-22.36,25.28s8.61,25.28,22.36,25.28a22.45,22.45,0,0,0,20.16-12.41l6.32,4.05c-4.86,9.1-13.66,15-26.49,15-18.51,0-30.06-14.53-30.06-31.9Z"/><path class="cls-1" d="M183.53,143.93h-9.07L150.9,206.45h7.24l5.59-15L166,185.3l13-34.84,13,34.84,2.29,6.16,5.59,15h7.15l-23.55-62.52Z"/><path class="cls-1" d="M216.79,206.45V143.93h22.54c18,0,30,12.69,30,31.17s-12,31.35-30,31.35Zm7.24-55.9v49.28h15.3c13,0,22.36-10,22.36-24.73s-9.35-24.55-22.36-24.55Z"/><path class="cls-1" d="M323.83,143.93v6.34H288.46v22.16h29.88v6.44H288.46v21.24h35.37v6.34H281.31V143.93Z"/><path class="cls-1" d="M347.84,143.93l21.54,54.7L391,143.93h10.72v62.52h-7.15V153l-21.35,53.41h-7.79L344.18,153v53.41H337V143.93Z"/><path class="cls-1" d="M411.89,143.93h8.25L439.48,176l19.25-32.09h8.16l-23.83,38.89v23.63h-7.24V182.91l-23.92-39Z"/></g></svg>