<svg id="Camada_1" data-name="Camada 1" xmlns="http://www.w3.org/2000/svg" viewBox="0 0 317.61 257.23"><defs><style>.cls-1{fill:#2e86ab;}</style></defs><g id="Camada_1-2" data-name="Camada 1"><path class="cls-1" d="M148.77,78.51V70.16L32.25,98v7.17l86.13,27.59v-8.31l-70.23-21.9-3.65-1.14,3.73-.82L148.77,78.51Z"/><polygon class="cls-1" points="189.88 59.07 133.09 147.43 130.8 151 123.05 151 126.66 145.38 182.12 59.07 189.88 59.07"/><path class="cls-1" d="M197.22,70.27v8.31l70.23,22,3.08,1-3.08,1L158.26,136.77v8.32l125.09-39.93V97.93L197.22,70.26Z"/><path class="cls-1" d="M243.18,124.46v46.61l-.7.22-80,25.66-1.32.42V150.75l-3.73,1.2-.31.09-.3-.09-3.73-1.2v46.62l-1.31-.42-80-25.66-.71-.22V124.46L63,121.87V177l89.39,28.67,4.73,1.52,4.74-1.52L251.24,177V121.87l-8.07,2.59Z"/></g></svg>